<?xml version="1.0" encoding="utf-8"?>
<?xml-stylesheet type="text/xsl" href="rss1.xsl"?>
<rss version="2.0" xmlns:atom="http://www.w3.org/2005/Atom" xmlns:content="http://purl.org/rss/1.0/modules/content/" xmlns:dc="http://purl.org/dc/elements/1.1/" xmlns:media="http://search.yahoo.com/mrss/">
<channel>
 <title>Getty</title>
 <link>http://www.gettyimg.com/</link>
 <atom:link href="http://www.gettyimg.com/" rel="self" type="application/rss+xml" />

 
                <item>
                <title><![CDATA[【Apple Music】Billie Eilish - CHIHIRO (BILLIE BY FINNEAS) [Apple Music 1080]]]></title>
                <link><![CDATA[https://sharemania.us/threads/billie-eilish-chihiro-billie-by-finneas-apple-music-1080.244960/]]></link>
                <description><![CDATA[<article>
<blockquote class="messageText SelectQuoteContainer ugc baseHtml">
<div style="text-align: center"><img src="https://i.ibb.co/QmHSRZf/Billie-Eilish-CHIHIRO-BILLIE-BY-FINNEAS-VTM.gif" class="bbCodeImage LbImage" alt="[​IMG]" data-url="https://i.ibb.co/QmHSRZf/Billie-Eilish-CHIHIRO-BILLIE-BY-FINNEAS-VTM.gif" style=""><br>
​</div>
<div class="ToggleTriggerAnchor bbCodeSpoilerContainer">
<button type="button" class="button bbCodeSpoilerButton ToggleTrigger Tooltip JsOnly" data-target="> .SpoilerTarget"><span>Spoiler: <span class="SpoilerTitle">Apple Music</span></span></button>
<div class="SpoilerTarget bbCodeSpoilerText">
<div class="bbCodeBlock bbCodeCode">
<div class="type">Code:</div>
<pre>General
Complete name                            : Billie Eilish - CHIHIRO (BILLIE BY FINNEAS).m4v
Format                                   : MPEG-4
Format profile                           : Base Media / Version 2
Codec ID                                 : mp42 (mp42/isom)
File size                                : 180 MiB
Duration                                 : 5 min 3 s
Overall bit rate mode                    : Variable
Overall bit rate                         : 4 980 kb/s
Frame rate                               : 29.970 FPS
Encoded date                             : 2024-05-23 05:45:54 UTC
Tagged date                              : 2024-05-23 05:46:09 UTC

Video
ID                                       : 2
Format                                   : AVC
Format/Info                              : Advanced Video Codec
Format profile                           : High@L4
Format settings                          : CABAC / 5 Ref Frames
Format settings, CABAC                   : Yes
Format settings, Reference frames        : 5 frames
Format settings, GOP                     : N=1
Format settings, Slice count             : 8 slices per frame
Codec ID                                 : avc1
Codec ID/Info                            : Advanced Video Coding
Duration                                 : 5 min 3 s
Bit rate                                 : 4 851 kb/s
Width                                    : 1 440 pixels
Height                                   : 1 078 pixels
Display aspect ratio                     : 16:9
Frame rate mode                          : Constant
Frame rate                               : 29.970 (30000/1001) FPS
Color space                              : YUV
Chroma subsampling                       : 4:2:0
Bit depth                                : 8 bits
Scan type                                : Progressive
Bits/(Pixel*Frame)                       : 0.104
Stream size                              : 175 MiB (97%)
Language                                 : English
Encoded date                             : 2024-05-23 05:46:06 UTC
Tagged date                              : 2024-05-23 05:46:09 UTC
Color range                              : Limited
Color primaries                          : BT.709
Transfer characteristics                 : BT.709
Matrix coefficients                      : BT.709
Codec configuration box                  : avcC

Audio
ID                                       : 1
Format                                   : AAC LC
Format/Info                              : Advanced Audio Codec Low Complexity
Codec ID                                 : 2 / 40 / mp4a-40-2
Duration                                 : 5 min 3 s
Bit rate mode                            : Variable
Bit rate                                 : 126 kb/s
Maximum bit rate                         : 170 kb/s
Channel(s)                               : 2 channels
Channel layout                           : L R
Sampling rate                            : 48.0 kHz
Frame rate                               : 46.875 FPS (1024 SPF)
Compression mode                         : Lossy
Stream size                              : 4.56 MiB (3%)
Language                                 : English
Default                                  : Yes
Alternate group                          : 1
Encoded date                             : 2024-05-23 05:45:56 UTC
Tagged date                              : 2024-05-23 05:46:05 UTC

</pre>
</div><div style="text-align: center">​</div></div>
</div><div style="text-align: center"><br>
<div class="bbCodeBlock bbCodeVfcHH HiddenContent">
<div class="attribution type">Hidden Content:</div>
<blockquote>You must reply before you can see the hidden data contained here.</blockquote>
</div></div>
<div class="messageTextEndMarker">&nbsp;</div>
</blockquote>
</article>]]></description>
                <author><![CDATA[fstambuk]]></author>
                </item>

                
                <item>
                <title><![CDATA[【Apple Music】Billie Eilish - BIRDS OF A FEATHER (BILLIE BY FINNEAS) [Apple Music 1080]]]></title>
                <link><![CDATA[https://sharemania.us/threads/billie-eilish-birds-of-a-feather-billie-by-finneas-apple-music-1080.244961/]]></link>
                <description><![CDATA[<article>
<blockquote class="messageText SelectQuoteContainer ugc baseHtml">
<div style="text-align: center"><img src="https://i.ibb.co/TqFnm5h/Billie-Eilish-BIRDS-OF-A-FEATHER-BILLIE-BY-FINNEAS-VTM.gif" class="bbCodeImage LbImage" alt="[​IMG]" data-url="https://i.ibb.co/TqFnm5h/Billie-Eilish-BIRDS-OF-A-FEATHER-BILLIE-BY-FINNEAS-VTM.gif" style=""><br>
​</div>
<div class="ToggleTriggerAnchor bbCodeSpoilerContainer">
<button type="button" class="button bbCodeSpoilerButton ToggleTrigger Tooltip JsOnly" data-target="> .SpoilerTarget"><span>Spoiler: <span class="SpoilerTitle">Apple Music</span></span></button>
<div class="SpoilerTarget bbCodeSpoilerText">
<div class="bbCodeBlock bbCodeCode">
<div class="type">Code:</div>
<pre>General
Complete name                            : Billie Eilish - BIRDS OF A FEATHER (BILLIE BY FINNEAS).m4v
Format                                   : MPEG-4
Format profile                           : Base Media / Version 2
Codec ID                                 : mp42 (mp42/isom)
File size                                : 123 MiB
Duration                                 : 3 min 29 s
Overall bit rate mode                    : Variable
Overall bit rate                         : 4 906 kb/s
Frame rate                               : 29.970 FPS
Encoded date                             : 2024-05-23 05:46:09 UTC
Tagged date                              : 2024-05-23 05:46:22 UTC

Video
ID                                       : 2
Format                                   : AVC
Format/Info                              : Advanced Video Codec
Format profile                           : High@L4
Format settings                          : CABAC / 5 Ref Frames
Format settings, CABAC                   : Yes
Format settings, Reference frames        : 5 frames
Format settings, GOP                     : N=1
Format settings, Slice count             : 8 slices per frame
Codec ID                                 : avc1
Codec ID/Info                            : Advanced Video Coding
Duration                                 : 3 min 29 s
Bit rate                                 : 4 774 kb/s
Width                                    : 1 440 pixels
Height                                   : 1 078 pixels
Display aspect ratio                     : 16:9
Frame rate mode                          : Constant
Frame rate                               : 29.970 (30000/1001) FPS
Color space                              : YUV
Chroma subsampling                       : 4:2:0
Bit depth                                : 8 bits
Scan type                                : Progressive
Bits/(Pixel*Frame)                       : 0.103
Stream size                              : 119 MiB (97%)
Language                                 : English
Encoded date                             : 2024-05-23 05:46:20 UTC
Tagged date                              : 2024-05-23 05:46:21 UTC
Color range                              : Limited
Color primaries                          : BT.709
Transfer characteristics                 : BT.709
Matrix coefficients                      : BT.709
Codec configuration box                  : avcC

Audio
ID                                       : 1
Format                                   : AAC LC
Format/Info                              : Advanced Audio Codec Low Complexity
Codec ID                                 : 2 / 40 / mp4a-40-2
Duration                                 : 3 min 29 s
Bit rate mode                            : Variable
Bit rate                                 : 129 kb/s
Maximum bit rate                         : 174 kb/s
Channel(s)                               : 2 channels
Channel layout                           : L R
Sampling rate                            : 48.0 kHz
Frame rate                               : 46.875 FPS (1024 SPF)
Compression mode                         : Lossy
Stream size                              : 3.23 MiB (3%)
Language                                 : English
Default                                  : Yes
Alternate group                          : 1
Encoded date                             : 2024-05-23 05:46:11 UTC
Tagged date                              : 2024-05-23 05:46:19 UTC

</pre>
</div><div style="text-align: center">​</div></div>
</div><div style="text-align: center"><br>
<div class="bbCodeBlock bbCodeVfcHH HiddenContent">
<div class="attribution type">Hidden Content:</div>
<blockquote>You must reply before you can see the hidden data contained here.</blockquote>
</div></div>
<div class="messageTextEndMarker">&nbsp;</div>
</blockquote>
</article>]]></description>
                <author><![CDATA[fstambuk]]></author>
                </item>

                
                <item>
                <title><![CDATA[【Requests】[REQ AUD] - Billie Eilish Digital Exclusive "Hit me hard and soft" slowed &amp; reverb and sped up versions]]></title>
                <link><![CDATA[https://sharemania.us/threads/billie-eilish-digital-exclusive-hit-me-hard-and-soft-slowed-reverb-and-sped-up-versions.244962/]]></link>
                <description><![CDATA[<article>
<blockquote class="messageText SelectQuoteContainer ugc baseHtml">
Hello there !<br>
<br>
I'm searching for these two new versions of the album : "slowed and reverb" &amp; "sped up" .<br>
Available only few hours on her website : <a href="https://store.billieeilish.com/" target="_blank" class="externalLink" rel="nofollow">https://store.billieeilish.com/</a><br>
<br>
thank you so much !!
<div class="messageTextEndMarker">&nbsp;</div>
</blockquote>
</article>]]></description>
                <author><![CDATA[tomwin]]></author>
                </item>

                </channel></rss>